<?xml version="1.0" standalone="no"?>
<!DOCTYPE svg PUBLIC "-//W3C//DTD SVG 20010904//EN"
 "http://www.w3.org/TR/2001/REC-SVG-20010904/DTD/svg10.dtd">
<svg version="1.0" xmlns="http://www.w3.org/2000/svg"
 width="144.000000pt" height="144.000000pt" viewBox="0 0 144.000000 144.000000"
 preserveAspectRatio="xMidYMid meet">
<metadata>
Created by potrace 1.13, written by Peter Selinger 2001-2015
</metadata>
<g transform="translate(0.000000,144.000000) scale(0.100000,-0.100000)"
fill="#000000" stroke="none">
<path d="M765 1258 c-99 -20 -183 -37 -186 -37 -3 -1 -11 -25 -18 -54 -6 -30
-16 -71 -22 -91 l-11 -38 -78 4 c-43 1 -74 0 -68 -3 10 -6 1 -40 -53 -213 -5
-16 -9 -30 -9 -32 0 -2 33 -4 74 -6 l73 -3 -19 -80 c-10 -44 -21 -87 -24 -95
-4 -8 -8 -25 -10 -37 -1 -13 -10 -57 -20 -99 -40 -180 21 -285 181 -315 84
-16 268 2 313 29 10 7 75 242 68 249 -1 1 -19 -2 -40 -8 -21 -6 -44 -8 -52 -5
-8 3 -14 1 -14 -4 0 -13 -97 -13 -105 0 -5 9 51 259 76 338 l11 32 109 0 109
0 11 28 c6 15 12 39 14 54 2 15 11 51 19 79 28 92 31 89 -89 89 -124 0 -118
-10 -80 142 14 55 25 103 23 107 -2 3 -84 -10 -183 -31z m105 -50 c0 -7 -11
-56 -25 -108 -14 -52 -25 -101 -25 -107 0 -10 29 -13 111 -13 85 0 110 -3 106
-12 -2 -7 -10 -37 -17 -65 l-14 -53 -111 0 -112 0 -36 -137 c-58 -220 -68
-277 -56 -313 15 -42 39 -52 117 -49 66 2 67 2 63 -22 -1 -13 -8 -39 -15 -58
-14 -45 -40 -52 -181 -54 -92 -2 -116 1 -149 18 -100 51 -105 107 -37 388 28
115 51 213 51 218 0 5 -32 9 -71 9 -64 0 -70 2 -64 19 3 10 11 38 18 62 l13
44 71 3 70 3 23 87 c12 48 26 91 30 96 7 7 188 51 228 55 6 0 12 -5 12 -11z"/>
</g>
</svg>
