<?xml version="1.0" standalone="no"?>
<!DOCTYPE svg PUBLIC "-//W3C//DTD SVG 20010904//EN"
 "http://www.w3.org/TR/2001/REC-SVG-20010904/DTD/svg10.dtd">
<svg version="1.0" xmlns="http://www.w3.org/2000/svg"
 width="636.000000pt" height="636.000000pt" viewBox="0 0 636.000000 636.000000"
 preserveAspectRatio="xMidYMid meet">

<g transform="translate(0.000000,636.000000) scale(0.100000,-0.100000)"
fill="#000000" stroke="none">
<path d="M3570 5265 l0 -725 -240 0 c-172 0 -240 -3 -240 -11 0 -8 -14 -10
-42 -6 -42 6 -98 -15 -98 -36 0 -5 25 -50 56 -100 86 -140 87 -142 66 -145 -9
-1 -487 -3 -1062 -5 -825 -1 -1050 -5 -1067 -15 -35 -20 -287 -287 -396 -420
l-27 -34 0 -1259 0 -1259 -65 0 -65 0 0 -320 0 -320 2985 0 2985 0 0 1810 0
1810 -595 0 -595 0 0 880 0 880 -800 0 -800 0 0 -725z"/>
</g>
</svg>
