<?xml version="1.0" encoding="utf-8"?>
<!-- Svg Vector Icons : http://www.onlinewebfonts.com/icon -->
<!DOCTYPE svg PUBLIC "-//W3C//DTD SVG 1.1//EN" "http://www.w3.org/Graphics/SVG/1.1/DTD/svg11.dtd">
<svg version="1.1" xmlns="http://www.w3.org/2000/svg" xmlns:xlink="http://www.w3.org/1999/xlink" x="0px" y="0px" viewBox="0 0 1000 1000" enable-background="new 0 0 1000 1000" xml:space="preserve">
<metadata> Svg Vector Icons : http://www.onlinewebfonts.com/icon </metadata>
<g><g transform="matrix(1 0 0 -1 0 1920)"><path d="M152.8,930c-22.4,0-41.3,8-56.6,24c-15.3,16-23,35.3-23,58v539.8c0,12.8-2.1,25.6-6.4,38.3c-4.2,12.7-8.9,23.4-14.1,32.2c-5.2,8.7-9.9,18.5-14.1,29.3s-6.4,20.8-6.4,30.1c0,25.1,5.7,48.3,17,69.5c11.3,21.2,26.8,37.9,46.3,50.2c19.5,12.3,40.9,18.4,64.1,18.4c20.2,0,39.2-2.9,57-8.6c4.9,18.6,12.3,35,22.1,49.2c10.9,16.1,24.8,28.4,41.6,36.9s35.3,12.7,55.5,12.7c31.1,0,58.7-5.5,82.6-16.4c23.9-10.9,43.7-25.4,59.2-43.4c24.9,15.3,50.6,23,77.1,23c8.5,0,16.8-0.8,25-2.5c19.1-4.1,35.5-11.2,49.2-21.3c13.7-10.1,25.8-23.8,36.5-41c11.5,5.7,24.3,8.6,38.5,8.6c16.9,0,33.8-4,50.6-11.9c16.8-7.9,30.9-18.5,42.2-31.8c11.3-13.3,17.6-27.1,18.7-41.6c0.8-9.6,1.2-18.2,1.2-25.8c0-10.9-1-20.4-2.9-28.3s-3.8-13.6-5.7-17c-1.9-3.4-5.1-8.1-9.4-14.1c-6.3-7.9-15.2-15.8-26.8-23.8c-11.6-7.9-21.7-13.9-30.1-18l-12.7-6.1v-12.7h107c48.6,0,85.1-15.8,109.4-47.5c14.8-19.7,22.1-46.2,22.1-79.5c0-35.5-9.3-87.2-27.9-154.9c-7.7-28.1-17.5-53.5-29.5-76c-12-22.5-24.7-41.1-38.1-55.5c-13.4-14.5-28.4-27-45.1-37.5c-16.7-10.5-32.7-18.4-48.2-23.8c-15.4-5.3-32-9.4-49.8-12.1V1012c0-14.8-3.8-28.5-11.5-41.2c-7.7-12.7-18-22.7-30.9-29.9c-13-7.2-27-10.9-42-10.9H152.8z M196.3,1344.4c8.7,0,16.3,2.1,22.7,6.4c6.4,4.2,11.1,9.4,13.9,15.4c2.9,6,4.3,12.4,4.3,19.3v117.2c0.3,3.6,0.8,5.3,1.6,5.3c0.5,0,1.4-1.6,2.5-4.9c7.1-23,20.1-34.4,38.9-34.4c6.6,0,12.2,2.9,16.8,8.8c4.6,5.9,8,12.6,10,20.3c2,7.7,3.3,16.1,3.9,25.4c0.5,10.7,2.4,20.8,5.5,30.5c3.1,9.7,7.6,19,13.3,27.9c5.7,8.9,13.5,16.4,23.2,22.5c9.7,6.1,20.8,10,33.4,11.7c3.8,0.5,14,1.1,30.5,1.6c16.5,0.5,35.2,1.2,55.9,2c20.8,0.8,43.9,2.1,69.5,3.9c25.6,1.8,50.1,4.6,73.6,8.6c23.5,4,45.2,8.9,65.2,15s35.9,14.1,48,24.2c12,10.1,18,21.6,18,34.4c0,16.1-5.9,28.2-17.6,36.3c-11.7,8.1-26.2,12.1-43.4,12.1c-12.3,0-24.2-2-35.7-5.9c-11.5-4-20.2-9.4-26.2-16.2c-0.5,1.6-1.4,3.8-2.5,6.6c-1.1,2.7-3.5,7.7-7.4,15c-3.8,7.2-7.9,13.7-12.3,19.5c-4.4,5.7-10,11.4-17,17c-7,5.6-14.3,9.4-21.9,11.3c-4.6,0.8-9.3,1.2-13.9,1.2c-17.8,0-34.3-6.4-49.6-19.1c-15.3-12.7-27.3-30.7-36.1-53.9c-15,72.4-55.2,107.2-120.5,104.5c-12-0.5-22.9-3.3-32.6-8.2c-9.7-4.9-17.4-11.1-23-18.6c-5.6-7.5-10.5-15.7-14.6-24.6c-4.1-8.9-7-17.7-8.6-26.4c-1.6-8.7-2.9-16.7-3.7-24c-0.8-7.2-1.2-13.2-1.2-17.8l0.4-6.6c-0.5,0.5-1.4,1.3-2.5,2.3c-1.1,1-3.3,2.9-6.6,5.9c-3.3,3-6.7,5.8-10.2,8.4s-8,5.5-13.3,8.8c-5.3,3.3-10.5,6.1-15.6,8.4c-5.1,2.3-10.7,4.3-17,5.9c-6.3,1.6-12.3,2.5-18,2.5c-7.9,0-15.4-1.5-22.5-4.5c-25.4-11.7-38.1-28.7-38.1-50.8c0-9.3,2-20.6,6.1-33.8c4.1-13.3,8.6-25.8,13.5-37.5c4.9-11.8,9.4-25.6,13.5-41.6c4.1-16,6.1-30.8,6.1-44.5v-151.2c0-10.7,3.6-20.2,10.9-28.7C173.4,1348.6,183.4,1344.4,196.3,1344.4z M565.2,1032.5c11.2,0,20.8,4,28.9,12.1c8.1,8.1,12.1,17.7,12.1,28.9v493.9c-28.1-4.1-55.5-7.8-82-11.1v-482.8c0-11.2,4-20.8,12.1-28.9C544.3,1036.5,554,1032.5,565.2,1032.5z M401.2,1032.5c11.2,0,20.8,4,28.9,12.1c8.1,8.1,12.1,17.7,12.1,28.9v473.8c-4.1-0.5-9.4-1.4-15.8-2.5c-6.4-1.1-15.7-3.8-27.9-8.2c-12.2-4.4-19.9-9.2-23.2-14.3c-10.1-17.2-15.2-44.5-15.2-82v-366.8c0-7.4,1.8-14.2,5.5-20.5c3.7-6.3,8.7-11.3,15-15C387,1034.3,393.8,1032.5,401.2,1032.5z M729.1,1182.1c10.1,3.3,19.4,6.7,27.9,10.2c8.5,3.6,18.6,9.1,30.5,16.6c11.9,7.5,22.4,15.8,31.6,25c9.2,9.2,18.2,21.2,27.1,36.1c8.9,14.9,15.8,31.4,20.7,49.4c19.4,70,29.1,119,29.1,147.1c0,10.9-1.5,18.3-4.5,22.1c-7.7,10.1-22.4,15.2-44.3,15.2h-118V1182.1z M237.3,1032.5c5.5,0,10.7,1.1,15.8,3.3c5.1,2.2,9.4,5.1,13.1,8.8c3.7,3.7,6.6,8.1,8.8,13.1c2.2,5.1,3.3,10.3,3.3,15.8v299.2c0-9.6-1.8-19.1-5.3-28.5c-3.6-9.4-8.7-18.1-15.4-26c-6.7-7.9-15.4-14.4-26-19.5c-10.7-5.1-22.4-7.6-35.2-7.6v-217.6c0-7.4,1.8-14.2,5.5-20.5c3.7-6.3,8.7-11.3,15-15C223.1,1034.3,229.9,1032.5,237.3,1032.5z"/></g></g>
</svg>